<svg xmlns="http://www.w3.org/2000/svg" width="770" height="480" font-family="ui-monospace,Menlo,monospace" font-size="12">
<rect width="770" height="480" fill="#fff"/>
<text x="347.0" y="26" text-anchor="middle" font-size="15" font-weight="700">ChromaPakZ codec rate–distortion (256×256×16 depth, peak 65535)</text>
<line x1="74.0" y1="54" x2="74.0" y2="418" stroke="#eee"/>
<text x="74.0" y="436" text-anchor="middle" fill="#555">0</text>
<line x1="74" y1="418.0" x2="620" y2="418.0" stroke="#eee"/>
<text x="66" y="422.0" text-anchor="end" fill="#555">47</text>
<line x1="183.2" y1="54" x2="183.2" y2="418" stroke="#eee"/>
<text x="183.2" y="436" text-anchor="middle" fill="#555">1</text>
<line x1="74" y1="345.2" x2="620" y2="345.2" stroke="#eee"/>
<text x="66" y="349.2" text-anchor="end" fill="#555">51</text>
<line x1="292.4" y1="54" x2="292.4" y2="418" stroke="#eee"/>
<text x="292.4" y="436" text-anchor="middle" fill="#555">3</text>
<line x1="74" y1="272.4" x2="620" y2="272.4" stroke="#eee"/>
<text x="66" y="276.4" text-anchor="end" fill="#555">55</text>
<line x1="401.6" y1="54" x2="401.6" y2="418" stroke="#eee"/>
<text x="401.6" y="436" text-anchor="middle" fill="#555">4</text>
<line x1="74" y1="199.6" x2="620" y2="199.6" stroke="#eee"/>
<text x="66" y="203.6" text-anchor="end" fill="#555">59</text>
<line x1="510.8" y1="54" x2="510.8" y2="418" stroke="#eee"/>
<text x="510.8" y="436" text-anchor="middle" fill="#555">6</text>
<line x1="74" y1="126.8" x2="620" y2="126.8" stroke="#eee"/>
<text x="66" y="130.8" text-anchor="end" fill="#555">64</text>
<line x1="620.0" y1="54" x2="620.0" y2="418" stroke="#eee"/>
<text x="620.0" y="436" text-anchor="middle" fill="#555">7</text>
<line x1="74" y1="54.0" x2="620" y2="54.0" stroke="#eee"/>
<text x="66" y="58.0" text-anchor="end" fill="#555">68</text>
<rect x="74" y="54" width="546" height="364" fill="none" stroke="#ccc"/>
<text x="347.0" y="460" text-anchor="middle" fill="#222">file size (bits / pixel / frame)</text>
<text x="18" y="236.0" text-anchor="middle" fill="#222" transform="rotate(-90 18 236.0)">PSNR of decoded vs source codes (dB)</text>
<line x1="74" y1="70" x2="620" y2="70" stroke="#bbb" stroke-dasharray="5 4"/>
<text x="78" y="65" fill="#777" font-size="10">lossless · ∞ dB (bit-exact)</text>
<circle cx="436.6" cy="70" r="4.5" fill="#16a34a"/>
<text x="436.6" y="86" text-anchor="middle" fill="#16a34a" font-size="10">4.6</text>
<circle cx="446.4" cy="70" r="4.5" fill="#ef4444"/>
<text x="446.4" y="98" text-anchor="middle" fill="#ef4444" font-size="10">4.8</text>
<circle cx="525.8" cy="70" r="4.5" fill="#f59e0b"/>
<text x="525.8" y="86" text-anchor="middle" fill="#f59e0b" font-size="10">5.8</text>
<polyline points="322.6,159.6 270.3,195.4 236.4,249.0 208.0,277.3 175.5,321.6 151.6,348.7" fill="none" stroke="#2563eb" stroke-width="2"/>
<circle cx="322.6" cy="159.6" r="3.2" fill="#2563eb"/>
<text x="322.6" y="151.6" text-anchor="middle" fill="#2563eb" font-size="10">QP8</text>
<circle cx="270.3" cy="195.4" r="3.2" fill="#2563eb"/>
<text x="270.3" y="187.4" text-anchor="middle" fill="#2563eb" font-size="10">QP16</text>
<circle cx="236.4" cy="249.0" r="3.2" fill="#2563eb"/>
<text x="236.4" y="241.0" text-anchor="middle" fill="#2563eb" font-size="10">QP24</text>
<circle cx="208.0" cy="277.3" r="3.2" fill="#2563eb"/>
<text x="208.0" y="269.3" text-anchor="middle" fill="#2563eb" font-size="10">QP32</text>
<circle cx="175.5" cy="321.6" r="3.2" fill="#2563eb"/>
<text x="175.5" y="313.6" text-anchor="middle" fill="#2563eb" font-size="10">QP48</text>
<circle cx="151.6" cy="348.7" r="3.2" fill="#2563eb"/>
<text x="151.6" y="340.7" text-anchor="middle" fill="#2563eb" font-size="10">QP63</text>
<rect x="634" y="85" width="11" height="11" fill="#16a34a"/>
<text x="649" y="95" fill="#222" font-size="11">ChromaPakZ VP9</text>
<rect x="634" y="104" width="11" height="11" fill="#ef4444"/>
<text x="649" y="114" fill="#222" font-size="11">FFV1</text>
<rect x="634" y="123" width="11" height="11" fill="#f59e0b"/>
<text x="649" y="133" fill="#222" font-size="11">PNG-16</text>
<rect x="634" y="142" width="11" height="11" fill="#2563eb"/>
<text x="649" y="152" fill="#222" font-size="11">VP9 lossy</text>
</svg>