<svg xmlns="http://www.w3.org/2000/svg" width="760" height="480" font-family="ui-monospace,Menlo,monospace" font-size="12">
<rect width="760" height="480" fill="#ffffff"/>
<text x="380.0" y="26" text-anchor="middle" font-size="15" font-weight="700">ChromaPakZ rate-distortion: lossless depth vs precision (320×240×30, noisy synthetic)</text>
<line x1="74.0" y1="54" x2="74.0" y2="416" stroke="#eee"/>
<text x="74.0" y="434" text-anchor="middle" fill="#555">4</text>
<line x1="74" y1="416.0" x2="736" y2="416.0" stroke="#eee"/>
<text x="66" y="420.0" text-anchor="end" fill="#555">40.1</text>
<line x1="206.4" y1="54" x2="206.4" y2="416" stroke="#eee"/>
<text x="206.4" y="434" text-anchor="middle" fill="#555">6</text>
<line x1="74" y1="343.6" x2="736" y2="343.6" stroke="#eee"/>
<text x="66" y="347.6" text-anchor="end" fill="#555">40.3</text>
<line x1="338.8" y1="54" x2="338.8" y2="416" stroke="#eee"/>
<text x="338.8" y="434" text-anchor="middle" fill="#555">8</text>
<line x1="74" y1="271.2" x2="736" y2="271.2" stroke="#eee"/>
<text x="66" y="275.2" text-anchor="end" fill="#555">40.5</text>
<line x1="471.2" y1="54" x2="471.2" y2="416" stroke="#eee"/>
<text x="471.2" y="434" text-anchor="middle" fill="#555">10</text>
<line x1="74" y1="198.8" x2="736" y2="198.8" stroke="#eee"/>
<text x="66" y="202.8" text-anchor="end" fill="#555">40.8</text>
<line x1="603.6" y1="54" x2="603.6" y2="416" stroke="#eee"/>
<text x="603.6" y="434" text-anchor="middle" fill="#555">12</text>
<line x1="74" y1="126.4" x2="736" y2="126.4" stroke="#eee"/>
<text x="66" y="130.4" text-anchor="end" fill="#555">41.0</text>
<line x1="736.0" y1="54" x2="736.0" y2="416" stroke="#eee"/>
<text x="736.0" y="434" text-anchor="middle" fill="#555">14</text>
<line x1="74" y1="54.0" x2="736" y2="54.0" stroke="#eee"/>
<text x="66" y="58.0" text-anchor="end" fill="#555">41.2</text>
<rect x="74" y="54" width="662" height="362" fill="none" stroke="#ccc"/>
<text x="405.0" y="458" text-anchor="middle" fill="#222">file size  (bits / pixel / frame)</text>
<text x="20" y="235.0" text-anchor="middle" fill="#222" transform="rotate(-90 20 235.0)">depth PSNR vs original (dB)</text>
<polyline points="137.0,351.8 207.8,190.0 268.4,146.8 345.0,135.9 448.7,133.1 500.3,132.4 554.9,132.2 683.3,132.2" fill="none" stroke="#2563eb" stroke-width="2"/>
<circle cx="137.0" cy="351.8" r="3.2" fill="#2563eb"/>
<circle cx="207.8" cy="190.0" r="3.2" fill="#2563eb"/>
<circle cx="268.4" cy="146.8" r="3.2" fill="#2563eb"/>
<circle cx="345.0" cy="135.9" r="3.2" fill="#2563eb"/>
<circle cx="448.7" cy="133.1" r="3.2" fill="#2563eb"/>
<circle cx="500.3" cy="132.4" r="3.2" fill="#2563eb"/>
<circle cx="554.9" cy="132.2" r="3.2" fill="#2563eb"/>
<circle cx="683.3" cy="132.2" r="3.2" fill="#2563eb"/>
<text x="137.0" y="343.8" text-anchor="middle" fill="#2563eb" font-size="10">8b</text>
<text x="207.8" y="182.0" text-anchor="middle" fill="#2563eb" font-size="10">9b</text>
<text x="268.4" y="138.8" text-anchor="middle" fill="#2563eb" font-size="10">10b</text>
<text x="345.0" y="127.9" text-anchor="middle" fill="#2563eb" font-size="10">11b</text>
<text x="448.7" y="125.1" text-anchor="middle" fill="#2563eb" font-size="10">12b</text>
<text x="500.3" y="124.4" text-anchor="middle" fill="#2563eb" font-size="10">13b</text>
<text x="554.9" y="124.2" text-anchor="middle" fill="#2563eb" font-size="10">14b</text>
<text x="683.3" y="124.2" text-anchor="middle" fill="#2563eb" font-size="10">16b</text>
<polyline points="134.0,351.8 207.0,190.0 284.3,146.8 361.1,135.9 435.5,133.1 504.3,132.4 573.4,132.2 724.5,132.2" fill="none" stroke="#ef4444" stroke-width="2"/>
<circle cx="134.0" cy="351.8" r="3.2" fill="#ef4444"/>
<circle cx="207.0" cy="190.0" r="3.2" fill="#ef4444"/>
<circle cx="284.3" cy="146.8" r="3.2" fill="#ef4444"/>
<circle cx="361.1" cy="135.9" r="3.2" fill="#ef4444"/>
<circle cx="435.5" cy="133.1" r="3.2" fill="#ef4444"/>
<circle cx="504.3" cy="132.4" r="3.2" fill="#ef4444"/>
<circle cx="573.4" cy="132.2" r="3.2" fill="#ef4444"/>
<circle cx="724.5" cy="132.2" r="3.2" fill="#ef4444"/>
<polyline points="220.1,351.8 307.5,190.0 389.2,146.8 468.1,135.9 536.9,133.1 573.0,132.4 626.1,132.2 725.4,132.2" fill="none" stroke="#10b981" stroke-width="2"/>
<circle cx="220.1" cy="351.8" r="3.2" fill="#10b981"/>
<circle cx="307.5" cy="190.0" r="3.2" fill="#10b981"/>
<circle cx="389.2" cy="146.8" r="3.2" fill="#10b981"/>
<circle cx="468.1" cy="135.9" r="3.2" fill="#10b981"/>
<circle cx="536.9" cy="133.1" r="3.2" fill="#10b981"/>
<circle cx="573.0" cy="132.4" r="3.2" fill="#10b981"/>
<circle cx="626.1" cy="132.2" r="3.2" fill="#10b981"/>
<circle cx="725.4" cy="132.2" r="3.2" fill="#10b981"/>
<rect x="586" y="59" width="12" height="12" fill="#2563eb"/>
<text x="602" y="69" fill="#222">ChromaPakZ</text>
<rect x="586" y="79" width="12" height="12" fill="#ef4444"/>
<text x="602" y="89" fill="#222">FFV1</text>
<rect x="586" y="99" width="12" height="12" fill="#10b981"/>
<text x="602" y="109" fill="#222">PNG-16</text>
<text x="586" y="130" fill="#777" font-size="10">labels = depth-bits</text>
</svg>