<svg xmlns="http://www.w3.org/2000/svg" width="760" height="470" font-family="ui-monospace,Menlo,monospace" font-size="12">
<rect width="760" height="470" fill="#fff"/>
<text x="380" y="26" text-anchor="middle" font-size="15" font-weight="700">ChromaPakZ codec rate–distortion (256×256 depth, peak 65535)</text>
<line x1="72.0" y1="52" x2="72.0" y2="408" stroke="#eee"/>
<text x="72.0" y="426" text-anchor="middle" fill="#555">3.0</text>
<line x1="72" y1="408.0" x2="736" y2="408.0" stroke="#eee"/>
<text x="64" y="412.0" text-anchor="end" fill="#555">49</text>
<line x1="204.8" y1="52" x2="204.8" y2="408" stroke="#eee"/>
<text x="204.8" y="426" text-anchor="middle" fill="#555">4.4</text>
<line x1="72" y1="336.8" x2="736" y2="336.8" stroke="#eee"/>
<text x="64" y="340.8" text-anchor="end" fill="#555">54</text>
<line x1="337.6" y1="52" x2="337.6" y2="408" stroke="#eee"/>
<text x="337.6" y="426" text-anchor="middle" fill="#555">5.8</text>
<line x1="72" y1="265.6" x2="736" y2="265.6" stroke="#eee"/>
<text x="64" y="269.6" text-anchor="end" fill="#555">58</text>
<line x1="470.4" y1="52" x2="470.4" y2="408" stroke="#eee"/>
<text x="470.4" y="426" text-anchor="middle" fill="#555">7.2</text>
<line x1="72" y1="194.4" x2="736" y2="194.4" stroke="#eee"/>
<text x="64" y="198.4" text-anchor="end" fill="#555">63</text>
<line x1="603.2" y1="52" x2="603.2" y2="408" stroke="#eee"/>
<text x="603.2" y="426" text-anchor="middle" fill="#555">8.6</text>
<line x1="72" y1="123.2" x2="736" y2="123.2" stroke="#eee"/>
<text x="64" y="127.2" text-anchor="end" fill="#555">67</text>
<line x1="736.0" y1="52" x2="736.0" y2="408" stroke="#eee"/>
<text x="736.0" y="426" text-anchor="middle" fill="#555">10.0</text>
<line x1="72" y1="52.0" x2="736" y2="52.0" stroke="#eee"/>
<text x="64" y="56.0" text-anchor="end" fill="#555">72</text>
<rect x="72" y="52" width="664" height="356" fill="none" stroke="#ccc"/>
<text x="404" y="450" text-anchor="middle" fill="#222">file size (bits / pixel)</text>
<text x="18" y="230" text-anchor="middle" fill="#222" transform="rotate(-90 18 230)">PSNR of decoded vs source codes (dB)</text>
<polyline points="472.4,115.9 406.9,161.0 336.5,202.5 291.6,255.8 255.3,294.9 201.1,342.0 159.5,374.7" fill="none" stroke="#2563eb" stroke-width="2"/>
<circle cx="472.4" cy="115.9" r="3.4" fill="#2563eb"/>
<text x="472.4" y="107.9" text-anchor="middle" fill="#2563eb" font-size="10">QP4</text>
<circle cx="406.9" cy="161.0" r="3.4" fill="#2563eb"/>
<text x="406.9" y="153.0" text-anchor="middle" fill="#2563eb" font-size="10">QP8</text>
<circle cx="336.5" cy="202.5" r="3.4" fill="#2563eb"/>
<text x="336.5" y="194.5" text-anchor="middle" fill="#2563eb" font-size="10">QP16</text>
<circle cx="291.6" cy="255.8" r="3.4" fill="#2563eb"/>
<text x="291.6" y="247.8" text-anchor="middle" fill="#2563eb" font-size="10">QP24</text>
<circle cx="255.3" cy="294.9" r="3.4" fill="#2563eb"/>
<text x="255.3" y="286.9" text-anchor="middle" fill="#2563eb" font-size="10">QP32</text>
<circle cx="201.1" cy="342.0" r="3.4" fill="#2563eb"/>
<text x="201.1" y="334.0" text-anchor="middle" fill="#2563eb" font-size="10">QP48</text>
<circle cx="159.5" cy="374.7" r="3.4" fill="#2563eb"/>
<text x="159.5" y="366.7" text-anchor="middle" fill="#2563eb" font-size="10">QP63</text>
<line x1="679.6" y1="52" x2="679.6" y2="408" stroke="#16a34a" stroke-dasharray="4 3"/>
<polygon points="679.6,56 673.6,67 685.6,67" fill="#16a34a"/>
<text x="670.6" y="67" text-anchor="end" fill="#16a34a" font-weight="700">QP 0 — lossless (∞ dB), 9.41 bpp</text>
<text x="730" y="398" text-anchor="end" fill="#777" font-size="10">VP9 quantizer sweep on the same quantized depth; QP0 = bit-exact</text>
</svg>